<?xml version="1.0" encoding="utf-8"?>
<!-- Generator: Adobe Illustrator 15.0.0, SVG Export Plug-In . SVG Version: 6.00 Build 0)  -->
<!DOCTYPE svg PUBLIC "-//W3C//DTD SVG 1.1//EN" "http://www.w3.org/Graphics/SVG/1.1/DTD/svg11.dtd">
<svg version="1.1" id="Layer_1" xmlns="http://www.w3.org/2000/svg" xmlns:xlink="http://www.w3.org/1999/xlink" x="0px" y="0px"
	 width="861.938px" height="191.542px" viewBox="643.667 419.833 861.938 191.542"
	 enable-background="new 643.667 419.833 861.938 191.542" xml:space="preserve">
<g>
	<g>
		<defs>
			<rect id="SVGID_1_" x="-581.328" y="-612.5" width="3162.656" height="2249"/>
		</defs>
		<clipPath id="SVGID_2_">
			<use xlink:href="#SVGID_1_"  overflow="visible"/>
		</clipPath>
		<path clip-path="url(#SVGID_2_)" d="M910.158,555.573c0,0.6-0.178,1.123-0.538,1.576c-0.361,0.447-0.961,0.822-1.8,1.119
			c-0.84,0.301-1.977,0.527-3.416,0.68c-1.441,0.143-3.27,0.219-5.486,0.219c-2.28,0-4.135-0.076-5.577-0.219
			c-1.438-0.152-2.593-0.376-3.459-0.68c-0.871-0.297-1.471-0.674-1.804-1.119c-0.328-0.453-0.494-0.977-0.494-1.576v-47.575
			c0-2.699-0.254-5.156-0.763-7.376c-0.51-2.216-1.291-4.121-2.34-5.711c-1.048-1.585-2.367-2.816-3.954-3.688
			c-1.591-0.864-3.494-1.298-5.711-1.298c-2.698,0-5.428,1.045-8.184,3.146c-2.761,2.099-5.757,5.153-8.994,9.173v53.333
			c0,0.598-0.18,1.12-0.539,1.574c-0.36,0.449-0.976,0.821-1.845,1.119c-0.869,0.303-2.024,0.527-3.462,0.68
			c-1.441,0.145-3.238,0.222-5.395,0.222c-2.221,0-4.05-0.077-5.488-0.222c-1.438-0.152-2.592-0.376-3.462-0.68
			c-0.871-0.298-1.483-0.673-1.845-1.119c-0.359-0.454-0.539-0.977-0.539-1.574v-47.575c0-2.699-0.255-5.159-0.766-7.377
			c-0.51-2.215-1.273-4.121-2.291-5.71c-1.021-1.588-2.338-2.816-3.958-3.688c-1.62-0.866-3.508-1.301-5.666-1.301
			c-2.756,0-5.517,1.047-8.272,3.148c-2.76,2.098-5.726,5.153-8.902,9.172v53.331c0,0.6-0.183,1.124-0.542,1.577
			c-0.358,0.447-0.975,0.822-1.846,1.119c-0.868,0.301-2.021,0.526-3.458,0.677c-1.441,0.145-3.271,0.223-5.487,0.223
			c-2.219,0-4.047-0.078-5.485-0.223c-1.439-0.15-2.595-0.374-3.463-0.677c-0.869-0.297-1.485-0.673-1.844-1.119
			c-0.361-0.453-0.541-0.978-0.541-1.577v-80.224c0-0.601,0.149-1.126,0.451-1.574c0.298-0.451,0.839-0.826,1.617-1.125
			c0.779-0.3,1.784-0.523,3.015-0.674c1.228-0.148,2.772-0.227,4.63-0.227c1.917,0,3.509,0.078,4.768,0.227
			c1.258,0.15,2.23,0.374,2.922,0.674c0.691,0.299,1.186,0.674,1.482,1.125c0.302,0.448,0.453,0.974,0.453,1.574v9.261
			c4.435-4.795,8.855-8.394,13.265-10.79c4.405-2.398,9.007-3.598,13.803-3.598c3.298,0,6.265,0.346,8.904,1.034
			c2.638,0.689,4.993,1.678,7.06,2.967c2.069,1.292,3.854,2.834,5.351,4.634c1.498,1.796,2.759,3.805,3.777,6.024
			c2.399-2.577,4.753-4.796,7.062-6.656c2.307-1.855,4.587-3.371,6.834-4.539c2.248-1.172,4.496-2.038,6.744-2.609
			c2.25-0.569,4.545-0.854,6.882-0.854c5.335,0,9.831,0.898,13.489,2.697c3.656,1.799,6.61,4.243,8.859,7.331
			c2.246,3.087,3.85,6.701,4.81,10.836c0.96,4.138,1.44,8.516,1.44,13.13v51.354H910.158z"/>
	</g>
	<g>
		<defs>
			<rect id="SVGID_3_" x="-581.328" y="-612.5" width="3162.656" height="2249"/>
		</defs>
		<clipPath id="SVGID_4_">
			<use xlink:href="#SVGID_3_"  overflow="visible"/>
		</clipPath>
		<path clip-path="url(#SVGID_4_)" d="M975.539,558.632l-9.713,28.418c-0.538,1.499-2.008,2.577-4.403,3.238
			c-2.398,0.658-5.91,0.99-10.524,0.99c-2.397,0-4.315-0.107-5.756-0.316c-1.436-0.207-2.518-0.551-3.235-1.032
			c-0.721-0.479-1.11-1.078-1.169-1.799c-0.063-0.72,0.117-1.588,0.537-2.606l10.703-26.891c-0.779-0.364-1.483-0.913-2.117-1.664
			c-0.626-0.751-1.092-1.542-1.391-2.382l-27.611-73.748c-0.779-2.099-1.169-3.703-1.169-4.811c0-1.112,0.361-1.979,1.081-2.609
			c0.72-0.628,1.935-1.063,3.641-1.306c1.71-0.236,3.972-0.359,6.791-0.359c2.579,0,4.618,0.047,6.115,0.138
			c1.498,0.089,2.667,0.314,3.508,0.673c0.839,0.36,1.47,0.916,1.889,1.663c0.416,0.75,0.839,1.813,1.26,3.194l18.887,53.691h0.268
			l17.268-54.771c0.36-1.557,0.822-2.593,1.394-3.104c0.57-0.507,1.517-0.883,2.835-1.125c1.318-0.239,3.625-0.359,6.924-0.359
			c2.579,0,4.724,0.12,6.432,0.359c1.709,0.242,2.97,0.693,3.774,1.353c0.811,0.659,1.215,1.543,1.215,2.651
			c0,1.113-0.238,2.412-0.718,3.913L975.539,558.632z"/>
	</g>
	<g>
		<defs>
			<rect id="SVGID_5_" x="-581.328" y="-612.5" width="3162.656" height="2249"/>
		</defs>
		<clipPath id="SVGID_6_">
			<use xlink:href="#SVGID_5_"  overflow="visible"/>
		</clipPath>
		<path clip-path="url(#SVGID_6_)" fill="#8CC640" d="M1110.982,460.333c0,1.74-0.076,3.24-0.224,4.498
			c-0.152,1.259-0.36,2.263-0.63,3.014s-0.603,1.273-0.991,1.571c-0.391,0.301-0.854,0.451-1.396,0.451
			c-0.777,0-2.037-0.54-3.775-1.622c-1.736-1.076-4.045-2.246-6.925-3.505c-2.876-1.258-6.31-2.428-10.298-3.507
			c-3.987-1.079-8.617-1.62-13.895-1.62c-5.637,0-10.731,0.977-15.287,2.925c-4.558,1.947-8.453,4.706-11.691,8.271
			c-3.239,3.569-5.725,7.857-7.463,12.862c-1.742,5.004-2.606,10.538-2.606,16.596c0,6.651,0.882,12.514,2.653,17.582
			c1.767,5.065,4.24,9.31,7.416,12.727c3.182,3.419,7,5.995,11.469,7.734c4.467,1.74,9.398,2.608,14.793,2.608
			c2.639,0,5.246-0.3,7.824-0.899c2.578-0.602,4.977-1.5,7.196-2.697V510.34h-22.033c-1.081,0-1.92-0.675-2.518-2.022
			c-0.603-1.349-0.899-3.642-0.899-6.878c0-1.679,0.073-3.089,0.224-4.227c0.149-1.14,0.371-2.054,0.676-2.745
			c0.298-0.689,0.659-1.196,1.077-1.525c0.421-0.33,0.899-0.496,1.44-0.496h39.301c0.957,0,1.813,0.166,2.561,0.496
			c0.754,0.329,1.409,0.824,1.979,1.482c0.569,0.659,1.006,1.453,1.306,2.383c0.297,0.932,0.449,1.994,0.449,3.19v46.318
			c0,1.799-0.313,3.374-0.942,4.723c-0.633,1.35-1.922,2.413-3.867,3.192c-1.95,0.78-4.362,1.59-7.242,2.43
			c-2.876,0.837-5.859,1.56-8.946,2.156c-3.092,0.6-6.206,1.049-9.352,1.353c-3.148,0.297-6.312,0.448-9.488,0.448
			c-9.293,0-17.613-1.332-24.959-4.002c-7.344-2.667-13.564-6.532-18.66-11.599c-5.097-5.065-8.99-11.242-11.691-18.526
			c-2.698-7.286-4.045-15.543-4.045-24.777c0-9.533,1.437-18.093,4.316-25.677c2.875-7.585,6.955-14.03,12.233-19.336
			c5.272-5.306,11.646-9.365,19.109-12.187c7.463-2.817,15.783-4.226,24.957-4.226c5.035,0,9.624,0.345,13.759,1.033
			c4.137,0.69,7.75,1.53,10.838,2.519c3.089,0.99,5.649,2.054,7.689,3.193c2.039,1.141,3.463,2.129,4.271,2.968
			c0.813,0.839,1.394,2.021,1.754,3.552C1110.801,455.073,1110.982,457.338,1110.982,460.333"/>
	</g>
	<g>
		<defs>
			<rect id="SVGID_7_" x="-581.328" y="-612.5" width="3162.656" height="2249"/>
		</defs>
		<clipPath id="SVGID_8_">
			<use xlink:href="#SVGID_7_"  overflow="visible"/>
		</clipPath>
		<path clip-path="url(#SVGID_8_)" fill="#8CC640" d="M1214.764,514.654c0,6.832-0.899,13.07-2.698,18.706
			c-1.797,5.638-4.526,10.493-8.182,14.569c-3.657,4.077-8.245,7.226-13.759,9.441c-5.517,2.214-11.962,3.329-19.338,3.329
			c-7.137,0-13.342-0.991-18.617-2.969c-5.273-1.978-9.652-4.855-13.129-8.633c-3.479-3.778-6.056-8.422-7.736-13.939
			c-1.68-5.518-2.515-11.815-2.515-18.89c0-6.833,0.912-13.082,2.739-18.75c1.833-5.665,4.574-10.522,8.23-14.568
			c3.66-4.048,8.229-7.179,13.715-9.398c5.488-2.216,11.916-3.327,19.292-3.327c7.192,0,13.429,0.974,18.706,2.923
			c5.275,1.947,9.635,4.812,13.083,8.587c3.448,3.777,6.011,8.424,7.693,13.939C1213.927,501.198,1214.764,507.517,1214.764,514.654
			 M1191.473,515.553c0-3.956-0.318-7.599-0.944-10.928c-0.631-3.327-1.694-6.219-3.193-8.679c-1.499-2.457-3.493-4.377-5.982-5.756
			c-2.486-1.378-5.62-2.067-9.397-2.067c-3.356,0-6.292,0.614-8.813,1.843c-2.517,1.229-4.586,3.027-6.205,5.395
			c-1.619,2.368-2.83,5.218-3.642,8.542c-0.81,3.331-1.215,7.124-1.215,11.379c0,3.957,0.329,7.601,0.989,10.928
			c0.659,3.326,1.725,6.222,3.193,8.677c1.468,2.46,3.462,4.363,5.978,5.713c2.521,1.348,5.638,2.024,9.354,2.024
			c3.416,0,6.383-0.618,8.902-1.846c2.516-1.228,4.586-3.012,6.203-5.35c1.623-2.341,2.823-5.173,3.599-8.501
			C1191.081,523.604,1191.473,519.814,1191.473,515.553"/>
	</g>
	<g>
		<defs>
			<rect id="SVGID_9_" x="-581.328" y="-612.5" width="3162.656" height="2249"/>
		</defs>
		<clipPath id="SVGID_10_">
			<use xlink:href="#SVGID_9_"  overflow="visible"/>
		</clipPath>
		<path clip-path="url(#SVGID_10_)" fill="#8CC640" d="M1255.325,555.573c0,0.6-0.183,1.123-0.539,1.576
			c-0.359,0.447-0.976,0.822-1.845,1.119c-0.867,0.301-2.019,0.527-3.463,0.68c-1.439,0.143-3.264,0.219-5.482,0.219
			s-4.047-0.076-5.487-0.219c-1.44-0.152-2.595-0.376-3.462-0.68c-0.869-0.297-1.483-0.674-1.841-1.119
			c-0.367-0.453-0.542-0.977-0.542-1.576V437.311c0-0.6,0.178-1.139,0.542-1.62c0.357-0.479,0.968-0.884,1.841-1.214
			c0.867-0.33,2.021-0.584,3.462-0.764c1.441-0.18,3.269-0.268,5.487-0.268s4.045,0.088,5.482,0.268
			c1.441,0.18,2.596,0.434,3.463,0.764c0.867,0.331,1.485,0.735,1.845,1.214c0.36,0.481,0.539,1.021,0.539,1.62V555.573z"/>
	</g>
	<g>
		<defs>
			<rect id="SVGID_11_" x="-581.328" y="-612.5" width="3162.656" height="2249"/>
		</defs>
		<clipPath id="SVGID_12_">
			<use xlink:href="#SVGID_11_"  overflow="visible"/>
		</clipPath>
		<path clip-path="url(#SVGID_12_)" fill="#8CC640" d="M1326.283,444.774c0,1.74-0.061,3.134-0.182,4.182
			c-0.124,1.05-0.3,1.86-0.539,2.43c-0.236,0.571-0.509,0.959-0.808,1.168c-0.302,0.21-0.627,0.315-0.988,0.315
			c-0.423,0-0.884-0.104-1.395-0.315c-0.511-0.209-1.139-0.432-1.892-0.674c-0.748-0.239-1.632-0.465-2.651-0.675
			c-1.022-0.209-2.217-0.313-3.596-0.313c-1.619,0-3.013,0.254-4.183,0.764c-1.168,0.51-2.145,1.319-2.925,2.427
			c-0.777,1.11-1.349,2.548-1.702,4.318c-0.363,1.769-0.543,3.942-0.543,6.519v7.376h14.659c0.542,0,1.036,0.148,1.485,0.45
			c0.453,0.301,0.824,0.795,1.123,1.482c0.297,0.688,0.525,1.635,0.675,2.832c0.15,1.199,0.224,2.669,0.224,4.408
			c0,3.298-0.298,5.653-0.898,7.06c-0.603,1.41-1.469,2.112-2.608,2.112h-14.659v64.933c0,0.601-0.179,1.127-0.537,1.576
			c-0.361,0.451-0.959,0.822-1.799,1.12c-0.842,0.304-2.01,0.526-3.507,0.677c-1.499,0.147-3.327,0.225-5.481,0.225
			c-2.163,0-3.979-0.077-5.442-0.225c-1.472-0.15-2.644-0.371-3.509-0.677c-0.868-0.298-1.469-0.67-1.799-1.12
			c-0.33-0.449-0.496-0.976-0.496-1.576v-64.933h-10.07c-1.141,0-1.995-0.702-2.563-2.112c-0.57-1.406-0.857-3.762-0.857-7.06
			c0-1.739,0.073-3.209,0.225-4.408c0.15-1.197,0.36-2.144,0.631-2.832c0.27-0.688,0.628-1.182,1.078-1.482
			c0.449-0.302,0.975-0.45,1.573-0.45h9.981v-6.748c0-5.456,0.543-10.237,1.62-14.343c1.081-4.105,2.77-7.525,5.083-10.254
			c2.306-2.728,5.243-4.779,8.81-6.16c3.569-1.38,7.782-2.069,12.638-2.069c2.34,0,4.555,0.194,6.657,0.585
			c2.098,0.39,3.747,0.811,4.944,1.259c1.199,0.452,2.008,0.87,2.432,1.26c0.417,0.392,0.763,0.958,1.032,1.708
			c0.271,0.749,0.461,1.708,0.582,2.876C1326.223,441.582,1326.283,443.037,1326.283,444.774"/>
	</g>
	<g>
		<defs>
			<rect id="SVGID_13_" x="-581.328" y="-612.5" width="3162.656" height="2249"/>
		</defs>
		<clipPath id="SVGID_14_">
			<use xlink:href="#SVGID_13_"  overflow="visible"/>
		</clipPath>
		<path clip-path="url(#SVGID_14_)" d="M1410.82,549.007c0,1.74-0.076,3.226-0.227,4.453c-0.149,1.229-0.372,2.237-0.671,3.011
			c-0.304,0.783-0.693,1.337-1.172,1.665c-0.48,0.332-1.022,0.493-1.617,0.493h-66.91c-1.322,0-2.463-0.119-3.418-0.36
			c-0.959-0.237-1.738-0.7-2.34-1.392c-0.602-0.689-1.035-1.692-1.302-3.014c-0.271-1.318-0.406-3.025-0.406-5.126
			c0-1.978,0.09-3.67,0.271-5.08c0.18-1.408,0.51-2.666,0.989-3.775c0.479-1.112,1.092-2.188,1.844-3.24
			c0.749-1.047,1.724-2.203,2.923-3.464l20.146-21.581c4.018-4.196,7.255-8.021,9.713-11.471c2.458-3.445,4.379-6.595,5.758-9.441
			c1.375-2.846,2.324-5.47,2.834-7.867c0.506-2.398,0.763-4.677,0.763-6.836c0-1.979-0.315-3.852-0.946-5.619
			c-0.628-1.769-1.559-3.313-2.786-4.631c-1.229-1.319-2.775-2.354-4.633-3.104c-1.857-0.75-4.048-1.125-6.563-1.125
			c-3.541,0-6.672,0.452-9.398,1.351c-2.731,0.899-5.129,1.902-7.195,3.012c-2.072,1.109-3.793,2.129-5.172,3.058
			c-1.38,0.931-2.457,1.394-3.236,1.394c-0.542,0-1.005-0.18-1.394-0.538c-0.392-0.361-0.706-0.959-0.946-1.799
			c-0.242-0.841-0.436-1.964-0.587-3.373s-0.223-3.133-0.223-5.172c0-1.379,0.043-2.531,0.134-3.462
			c0.089-0.929,0.227-1.737,0.403-2.426c0.179-0.687,0.418-1.291,0.722-1.799c0.295-0.51,0.822-1.126,1.571-1.845
			c0.752-0.719,2.131-1.631,4.139-2.743c2.007-1.106,4.483-2.186,7.418-3.235c2.938-1.05,6.175-1.936,9.714-2.653
			c3.537-0.72,7.224-1.078,11.062-1.078c6.056,0,11.347,0.762,15.876,2.293c4.524,1.527,8.287,3.656,11.284,6.383
			c2.998,2.729,5.231,5.968,6.7,9.714c1.469,3.746,2.204,7.777,2.204,12.096c0,3.777-0.36,7.495-1.077,11.152
			c-0.723,3.656-2.222,7.598-4.499,11.822c-2.278,4.229-5.485,8.904-9.621,14.032c-4.139,5.126-9.622,11.078-16.458,17.851
			l-13.579,13.942h45.866c0.598,0,1.152,0.178,1.662,0.538c0.513,0.358,0.946,0.913,1.303,1.666c0.362,0.749,0.631,1.74,0.812,2.964
			C1410.73,545.876,1410.82,547.329,1410.82,549.007"/>
	</g>
	<g>
		<defs>
			<rect id="SVGID_15_" x="-581.328" y="-612.5" width="3162.656" height="2249"/>
		</defs>
		<clipPath id="SVGID_16_">
			<use xlink:href="#SVGID_15_"  overflow="visible"/>
		</clipPath>
		<path clip-path="url(#SVGID_16_)" d="M1505.609,555.573c0,0.6-0.15,1.123-0.448,1.576c-0.301,0.447-0.826,0.822-1.574,1.119
			c-0.753,0.301-1.742,0.527-2.968,0.68c-1.234,0.143-2.773,0.219-4.635,0.219c-1.978,0-3.582-0.076-4.81-0.219
			c-1.229-0.152-2.201-0.376-2.923-0.68c-0.721-0.297-1.232-0.674-1.526-1.119c-0.301-0.453-0.454-0.977-0.454-1.576v-9.265
			c-4.436,4.798-8.945,8.396-13.533,10.793c-4.584,2.395-9.342,3.598-14.254,3.598c-5.518,0-10.15-0.899-13.896-2.699
			c-3.745-1.799-6.777-4.259-9.083-7.372c-2.309-3.117-3.957-6.729-4.946-10.837c-0.988-4.108-1.481-9.222-1.481-15.335v-49.104
			c0-0.601,0.161-1.126,0.493-1.574c0.33-0.451,0.928-0.826,1.8-1.125c0.864-0.3,2.032-0.523,3.504-0.674
			c1.469-0.148,3.281-0.227,5.439-0.227c2.219,0,4.05,0.078,5.486,0.227c1.44,0.15,2.594,0.374,3.463,0.674
			c0.866,0.299,1.485,0.674,1.847,1.125c0.36,0.448,0.534,0.974,0.534,1.574v45.326c0,4.198,0.272,7.407,0.813,9.623
			c0.536,2.22,1.359,4.124,2.474,5.711c1.107,1.588,2.519,2.817,4.227,3.688c1.708,0.868,3.7,1.305,5.982,1.305
			c2.875,0,5.768-1.048,8.676-3.149c2.909-2.102,6.009-5.155,9.307-9.176v-53.33c0-0.601,0.166-1.126,0.498-1.575
			c0.326-0.449,0.927-0.822,1.798-1.123c0.866-0.3,2.021-0.525,3.46-0.674c1.441-0.149,3.27-0.227,5.486-0.227
			s4.049,0.077,5.485,0.227c1.442,0.148,2.577,0.374,3.419,0.674c0.84,0.301,1.438,0.674,1.799,1.123s0.538,0.975,0.538,1.575
			v80.224H1505.609z"/>
	</g>
	<g>
		<defs>
			<rect id="SVGID_17_" x="-546.328" y="-633.5" width="3162.656" height="2249"/>
		</defs>
		<clipPath id="SVGID_18_">
			<use xlink:href="#SVGID_17_"  overflow="visible"/>
		</clipPath>
		<path clip-path="url(#SVGID_18_)" fill="#8CC640" d="M695.509,425.549c2.744,0,5.543,5.99,5.543,5.99
			c-2.995,0.798-5.543,3.794-5.543,3.794c7.934,4.192,10.934,12.279,10.934,12.279c0.6-4.193-1.796-11.68-1.796-11.68
			c10.183-4.493,8.685-9.285,8.685-9.285l-8.985,1.498c0,0-1.625-8.321-10.481-7.847c-18.597,1.722-14.675,20.425-14.675,20.425
			C680.886,424.551,695.509,425.549,695.509,425.549"/>
	</g>
	<g>
		<defs>
			<rect id="SVGID_19_" x="-546.328" y="-633.5" width="3162.656" height="2249"/>
		</defs>
		<clipPath id="SVGID_20_">
			<use xlink:href="#SVGID_19_"  overflow="visible"/>
		</clipPath>
		<path clip-path="url(#SVGID_20_)" fill="#8CC640" d="M768.138,435.933c-13.776,2.396-109.014,23.209-109.014,23.209
			s-10.781-3.144-12.877,2.247c0,0,12.05-0.235,4.1,6.139l-5.448,5.691c0,0,4.792,23.061,11.38,30.398
			c4.193-6.889,4.343-17.97,9.435-22.312c2.096,9.284,8.834,27.402,12.278,30.696c-0.149,4.193-0.449,23.809,5.092,32.944
			c1.347-7.337-4.343-20.065,2.246-32.045c-4.043-9.134-15.274-40.432-13.477-50.613c-6.29,5.989-16.771,18.867-15.873,25.905
			c-2.396-3.444-7.188-10.033-1.646-17.071c2.994-4.493,3.743-4.792,4.791-9.134c5.99-0.898,107.366-20.365,107.366-20.365
			s8.986,6.739,11.082,4.642C779.669,444.168,781.915,433.536,768.138,435.933"/>
	</g>
	<g>
		<defs>
			<rect id="SVGID_21_" x="-546.328" y="-633.5" width="3162.656" height="2249"/>
		</defs>
		<clipPath id="SVGID_22_">
			<use xlink:href="#SVGID_21_"  overflow="visible"/>
		</clipPath>
		<path clip-path="url(#SVGID_22_)" fill="#8CC640" d="M713.408,462.886c0,0,16.968,84.213-46.417,147.682l-0.008,0.088
			c28.104-27.05,79.35-88.463,51.739-156.155L713.408,462.886z"/>
	</g>
</g>
</svg>
