<?xml version="1.0" encoding="utf-8"?>
<!-- Generator: Adobe Illustrator 15.0.0, SVG Export Plug-In . SVG Version: 6.00 Build 0)  -->
<!DOCTYPE svg PUBLIC "-//W3C//DTD SVG 1.1//EN" "http://www.w3.org/Graphics/SVG/1.1/DTD/svg11.dtd">
<svg version="1.1" id="Layer_1" xmlns="http://www.w3.org/2000/svg" xmlns:xlink="http://www.w3.org/1999/xlink" x="0px" y="0px"
	 width="519.926px" height="282px" viewBox="0 0 519.926 282" enable-background="new 0 0 519.926 282" xml:space="preserve">
<g>
	<defs>
		<rect id="SVGID_1_" x="-474" y="-383" width="1440" height="1024"/>
	</defs>
	<clipPath id="SVGID_2_">
		<use xlink:href="#SVGID_1_"  overflow="visible"/>
	</clipPath>
	<path clip-path="url(#SVGID_2_)" d="M218.69,164.444c0,0.303-0.091,0.568-0.273,0.797c-0.182,0.227-0.485,0.416-0.91,0.567
		c-0.425,0.152-1,0.266-1.729,0.343c-0.728,0.073-1.653,0.112-2.775,0.112c-1.153,0-2.092-0.039-2.821-0.112
		c-0.728-0.077-1.312-0.19-1.751-0.343c-0.44-0.151-0.744-0.341-0.911-0.567c-0.166-0.229-0.25-0.494-0.25-0.797v-24.068
		c0-1.365-0.129-2.609-0.386-3.731c-0.258-1.121-0.653-2.085-1.184-2.889c-0.53-0.803-1.198-1.425-2.001-1.866
		c-0.804-0.438-1.767-0.658-2.889-0.658c-1.365,0-2.745,0.53-4.14,1.592c-1.396,1.062-2.912,2.608-4.55,4.641v26.98
		c0,0.303-0.091,0.568-0.273,0.797c-0.182,0.227-0.493,0.416-0.933,0.567c-0.439,0.152-1.023,0.266-1.751,0.343
		c-0.729,0.073-1.639,0.112-2.73,0.112c-1.122,0-2.048-0.039-2.776-0.112c-0.727-0.077-1.312-0.19-1.751-0.343
		c-0.441-0.151-0.751-0.341-0.933-0.567c-0.182-0.229-0.273-0.494-0.273-0.797v-24.068c0-1.365-0.129-2.609-0.387-3.731
		c-0.258-1.121-0.645-2.085-1.16-2.889c-0.516-0.803-1.182-1.425-2.002-1.866c-0.819-0.438-1.774-0.658-2.866-0.658
		c-1.395,0-2.791,0.53-4.185,1.592c-1.396,1.062-2.897,2.608-4.504,4.641v26.98c0,0.303-0.092,0.568-0.274,0.797
		c-0.181,0.227-0.493,0.416-0.933,0.567c-0.44,0.152-1.023,0.266-1.751,0.343c-0.728,0.073-1.654,0.112-2.775,0.112
		c-1.123,0-2.048-0.039-2.775-0.112c-0.729-0.077-1.313-0.19-1.752-0.343c-0.44-0.151-0.751-0.341-0.933-0.567
		c-0.182-0.229-0.273-0.494-0.273-0.797V123.86c0-0.303,0.075-0.569,0.228-0.796c0.151-0.228,0.424-0.417,0.818-0.569
		c0.394-0.151,0.902-0.265,1.525-0.341c0.621-0.075,1.402-0.114,2.342-0.114c0.971,0,1.775,0.039,2.412,0.114
		c0.637,0.076,1.129,0.19,1.479,0.341c0.349,0.152,0.599,0.341,0.75,0.569c0.152,0.227,0.228,0.493,0.228,0.796v4.686
		c2.244-2.426,4.481-4.246,6.711-5.459c2.229-1.213,4.557-1.82,6.983-1.82c1.668,0,3.169,0.175,4.504,0.523
		c1.335,0.349,2.526,0.849,3.572,1.501c1.047,0.653,1.949,1.434,2.707,2.344c0.758,0.909,1.395,1.926,1.911,3.048
		c1.213-1.304,2.404-2.426,3.572-3.367c1.167-0.939,2.32-1.706,3.457-2.297c1.138-0.592,2.275-1.031,3.412-1.32
		c1.138-0.288,2.299-0.432,3.481-0.432c2.7,0,4.974,0.455,6.825,1.365c1.85,0.91,3.344,2.146,4.481,3.708s1.949,3.391,2.434,5.482
		c0.485,2.093,0.728,4.308,0.728,6.643V164.444z"/>
	<path clip-path="url(#SVGID_2_)" d="M251.766,165.991l-4.914,14.377c-0.272,0.758-1.016,1.304-2.228,1.638
		c-1.214,0.333-2.989,0.501-5.324,0.501c-1.213,0-2.184-0.054-2.912-0.16c-0.727-0.105-1.274-0.279-1.637-0.522
		c-0.364-0.243-0.562-0.546-0.592-0.91s0.06-0.804,0.273-1.319l5.414-13.604c-0.394-0.183-0.75-0.462-1.07-0.842
		c-0.318-0.38-0.553-0.78-0.705-1.205l-13.967-37.308c-0.395-1.062-0.592-1.873-0.592-2.434c0-0.562,0.182-1.001,0.547-1.32
		c0.364-0.318,0.978-0.538,1.842-0.66c0.865-0.121,2.009-0.182,3.435-0.182c1.304,0,2.336,0.023,3.094,0.069
		c0.758,0.045,1.349,0.159,1.774,0.341c0.425,0.182,0.744,0.463,0.956,0.841c0.211,0.38,0.424,0.918,0.637,1.616l9.554,27.162h0.136
		l8.736-27.708c0.182-0.788,0.416-1.312,0.705-1.57c0.288-0.257,0.766-0.447,1.434-0.569c0.666-0.121,1.834-0.182,3.502-0.182
		c1.305,0,2.39,0.061,3.254,0.182c0.864,0.122,1.502,0.35,1.91,0.683c0.41,0.334,0.615,0.781,0.615,1.342
		c0,0.562-0.121,1.221-0.364,1.979L251.766,165.991z"/>
	<path clip-path="url(#SVGID_2_)" fill="#8CC640" d="M320.285,116.263c0,0.88-0.038,1.638-0.113,2.275
		c-0.077,0.637-0.183,1.145-0.319,1.524c-0.136,0.38-0.304,0.645-0.501,0.796c-0.197,0.152-0.432,0.228-0.705,0.228
		c-0.394,0-1.032-0.274-1.911-0.82c-0.879-0.545-2.047-1.137-3.503-1.774c-1.456-0.637-3.192-1.228-5.21-1.774
		c-2.017-0.546-4.359-0.819-7.028-0.819c-2.853,0-5.431,0.494-7.734,1.479c-2.306,0.985-4.276,2.381-5.915,4.185
		c-1.638,1.805-2.897,3.974-3.776,6.506c-0.88,2.533-1.318,5.331-1.318,8.396c0,3.365,0.446,6.331,1.342,8.895
		c0.894,2.563,2.145,4.709,3.753,6.438s3.541,3.033,5.801,3.913c2.259,0.88,4.754,1.319,7.484,1.319
		c1.335,0,2.653-0.151,3.958-0.455c1.304-0.304,2.517-0.759,3.64-1.364v-13.65h-11.146c-0.547,0-0.972-0.341-1.274-1.024
		c-0.304-0.682-0.455-1.842-0.455-3.479c0-0.85,0.037-1.563,0.113-2.138c0.076-0.576,0.188-1.039,0.342-1.389
		c0.151-0.348,0.334-0.605,0.545-0.772c0.213-0.167,0.455-0.25,0.729-0.25h19.882c0.484,0,0.917,0.083,1.296,0.25
		c0.38,0.167,0.712,0.417,1.001,0.75c0.288,0.334,0.508,0.735,0.66,1.206c0.15,0.47,0.227,1.009,0.227,1.614v23.432
		c0,0.91-0.158,1.707-0.477,2.389c-0.319,0.683-0.972,1.221-1.956,1.615c-0.987,0.395-2.207,0.805-3.663,1.229
		s-2.965,0.789-4.527,1.091c-1.563,0.304-3.139,0.531-4.731,0.684c-1.592,0.151-3.192,0.227-4.799,0.227
		c-4.702,0-8.911-0.674-12.627-2.024c-3.716-1.35-6.862-3.305-9.44-5.868s-4.549-5.688-5.914-9.373
		c-1.365-3.685-2.047-7.863-2.047-12.535c0-4.822,0.727-9.152,2.184-12.989c1.455-3.837,3.518-7.098,6.188-9.782
		c2.668-2.684,5.891-4.738,9.668-6.165c3.775-1.425,7.984-2.138,12.625-2.138c2.548,0,4.868,0.175,6.961,0.523
		c2.093,0.349,3.92,0.774,5.482,1.274c1.563,0.501,2.859,1.039,3.891,1.615c1.031,0.577,1.751,1.077,2.161,1.502
		c0.41,0.425,0.705,1.023,0.887,1.797C320.193,113.601,320.285,114.747,320.285,116.263"/>
	<path clip-path="url(#SVGID_2_)" fill="#8CC640" d="M372.788,143.743c0,3.457-0.455,6.612-1.365,9.463
		c-0.91,2.853-2.29,5.309-4.139,7.371c-1.851,2.063-4.172,3.655-6.961,4.777c-2.791,1.12-6.052,1.684-9.783,1.684
		c-3.61,0-6.749-0.502-9.418-1.502c-2.668-1.001-4.883-2.457-6.642-4.367c-1.76-1.912-3.064-4.262-3.913-7.053
		c-0.85-2.791-1.273-5.976-1.273-9.555c0-3.457,0.462-6.619,1.387-9.486c0.926-2.866,2.313-5.323,4.163-7.37
		c1.851-2.048,4.163-3.632,6.938-4.755c2.776-1.121,6.029-1.683,9.76-1.683c3.639,0,6.793,0.493,9.463,1.479
		c2.669,0.985,4.875,2.434,6.619,4.344c1.744,1.911,3.041,4.262,3.891,7.052C372.364,136.935,372.788,140.133,372.788,143.743
		 M361.005,144.198c0-2.002-0.16-3.845-0.478-5.529c-0.319-1.683-0.857-3.146-1.615-4.39c-0.759-1.243-1.767-2.214-3.026-2.912
		c-1.258-0.697-2.844-1.046-4.754-1.046c-1.698,0-3.184,0.311-4.459,0.932c-1.273,0.623-2.319,1.533-3.139,2.73
		c-0.819,1.198-1.433,2.639-1.842,4.321c-0.41,1.685-0.615,3.604-0.615,5.757c0,2.002,0.167,3.844,0.5,5.527
		c0.334,1.684,0.872,3.148,1.616,4.391c0.743,1.244,1.751,2.207,3.024,2.889c1.275,0.683,2.852,1.025,4.732,1.025
		c1.729,0,3.23-0.313,4.504-0.934c1.274-0.621,2.321-1.523,3.139-2.707c0.82-1.184,1.427-2.616,1.82-4.3
		C360.807,148.271,361.005,146.353,361.005,144.198"/>
	<path clip-path="url(#SVGID_2_)" fill="#8CC640" d="M393.308,164.444c0,0.303-0.092,0.568-0.273,0.797
		c-0.182,0.227-0.493,0.416-0.933,0.567c-0.439,0.152-1.022,0.266-1.752,0.343c-0.728,0.073-1.652,0.112-2.774,0.112
		c-1.123,0-2.047-0.039-2.775-0.112c-0.729-0.077-1.313-0.19-1.752-0.343c-0.44-0.151-0.75-0.341-0.932-0.567
		c-0.184-0.229-0.273-0.494-0.273-0.797v-59.829c0-0.303,0.09-0.576,0.273-0.819c0.182-0.242,0.491-0.447,0.932-0.614
		c0.439-0.167,1.023-0.296,1.752-0.387c0.729-0.091,1.652-0.136,2.775-0.136c1.122,0,2.047,0.045,2.774,0.136
		c0.729,0.091,1.313,0.22,1.752,0.387s0.751,0.372,0.933,0.614c0.182,0.243,0.273,0.516,0.273,0.819V164.444z"/>
	<path clip-path="url(#SVGID_2_)" fill="#8CC640" d="M429.205,108.392c0,0.88-0.031,1.585-0.092,2.115
		c-0.062,0.531-0.151,0.941-0.272,1.229c-0.121,0.289-0.258,0.486-0.41,0.591c-0.151,0.107-0.317,0.159-0.5,0.159
		c-0.213,0-0.447-0.052-0.704-0.159c-0.259-0.105-0.577-0.219-0.957-0.341c-0.38-0.121-0.826-0.235-1.342-0.341
		c-0.517-0.106-1.122-0.159-1.819-0.159c-0.819,0-1.524,0.129-2.116,0.387c-0.591,0.258-1.085,0.667-1.479,1.228
		c-0.394,0.561-0.682,1.289-0.862,2.184c-0.183,0.895-0.274,1.994-0.274,3.298v3.731h7.416c0.274,0,0.524,0.076,0.751,0.228
		c0.229,0.152,0.417,0.402,0.568,0.75c0.151,0.349,0.266,0.827,0.342,1.433c0.075,0.607,0.113,1.35,0.113,2.23
		c0,1.668-0.151,2.859-0.455,3.571c-0.304,0.713-0.743,1.069-1.319,1.069h-7.416v32.849c0,0.304-0.091,0.57-0.272,0.797
		c-0.183,0.229-0.485,0.417-0.91,0.568c-0.426,0.153-1.017,0.265-1.774,0.342c-0.758,0.075-1.683,0.113-2.774,0.113
		c-1.093,0-2.011-0.038-2.753-0.113c-0.744-0.077-1.336-0.188-1.774-0.342c-0.44-0.151-0.743-0.34-0.91-0.568
		c-0.167-0.227-0.251-0.493-0.251-0.797v-32.849h-5.095c-0.577,0-1.01-0.356-1.297-1.069c-0.288-0.712-0.433-1.903-0.433-3.571
		c0-0.88,0.037-1.623,0.114-2.23c0.075-0.606,0.181-1.084,0.318-1.433c0.137-0.348,0.317-0.598,0.546-0.75
		c0.227-0.152,0.493-0.228,0.796-0.228h5.05V118.9c0-2.759,0.274-5.178,0.819-7.256c0.547-2.077,1.402-3.806,2.571-5.187
		c1.166-1.38,2.653-2.418,4.457-3.116c1.806-0.698,3.937-1.047,6.394-1.047c1.183,0,2.304,0.099,3.367,0.296
		c1.062,0.197,1.896,0.41,2.502,0.637c0.606,0.228,1.016,0.44,1.229,0.637c0.212,0.198,0.386,0.485,0.523,0.864
		c0.137,0.38,0.233,0.865,0.295,1.456C429.174,106.776,429.205,107.513,429.205,108.392"/>
	<path clip-path="url(#SVGID_2_)" d="M471.972,161.122c0,0.881-0.038,1.632-0.114,2.253s-0.188,1.131-0.341,1.523
		c-0.153,0.396-0.35,0.676-0.592,0.842c-0.243,0.168-0.517,0.25-0.818,0.25h-33.85c-0.668,0-1.245-0.06-1.729-0.182
		c-0.485-0.121-0.88-0.355-1.183-0.705c-0.304-0.348-0.524-0.856-0.66-1.524c-0.136-0.667-0.204-1.53-0.204-2.593
		c0-1.001,0.045-1.857,0.136-2.57c0.092-0.713,0.259-1.35,0.501-1.91c0.242-0.563,0.553-1.107,0.933-1.64
		c0.379-0.529,0.872-1.114,1.478-1.752l10.192-10.918c2.032-2.123,3.669-4.057,4.914-5.802c1.243-1.744,2.214-3.336,2.912-4.777
		c0.696-1.439,1.175-2.767,1.433-3.98c0.257-1.213,0.387-2.366,0.387-3.458c0-1.001-0.16-1.948-0.478-2.843
		c-0.319-0.894-0.79-1.676-1.411-2.343s-1.403-1.19-2.343-1.57c-0.94-0.379-2.047-0.569-3.321-0.569
		c-1.79,0-3.375,0.228-4.754,0.683c-1.381,0.455-2.594,0.963-3.64,1.524c-1.048,0.561-1.919,1.077-2.616,1.547
		c-0.699,0.47-1.244,0.705-1.638,0.705c-0.273,0-0.509-0.091-0.705-0.273c-0.198-0.182-0.358-0.485-0.479-0.91
		c-0.122-0.425-0.22-0.993-0.296-1.706c-0.076-0.713-0.113-1.585-0.113-2.616c0-0.698,0.022-1.281,0.068-1.752
		c0.045-0.47,0.114-0.879,0.204-1.228c0.091-0.348,0.212-0.652,0.365-0.91c0.149-0.258,0.416-0.569,0.795-0.933
		c0.38-0.364,1.077-0.826,2.093-1.388c1.016-0.56,2.268-1.106,3.754-1.637c1.486-0.531,3.123-0.979,4.914-1.342
		c1.789-0.364,3.654-0.546,5.596-0.546c3.063,0,5.74,0.386,8.03,1.16c2.29,0.773,4.193,1.85,5.71,3.23
		c1.516,1.381,2.646,3.019,3.389,4.914c0.743,1.896,1.115,3.935,1.115,6.119c0,1.911-0.182,3.792-0.546,5.642
		c-0.364,1.85-1.122,3.844-2.275,5.981c-1.152,2.14-2.774,4.505-4.867,7.099c-2.094,2.593-4.868,5.604-8.326,9.03l-6.87,7.054
		h23.204c0.302,0,0.583,0.09,0.841,0.272s0.478,0.462,0.659,0.843c0.183,0.379,0.319,0.88,0.41,1.5
		C471.927,159.538,471.972,160.273,471.972,161.122"/>
	<path clip-path="url(#SVGID_2_)" d="M519.926,164.444c0,0.303-0.076,0.568-0.228,0.797c-0.151,0.227-0.418,0.416-0.796,0.567
		c-0.38,0.152-0.881,0.266-1.502,0.343c-0.622,0.073-1.402,0.112-2.343,0.112c-1.001,0-1.813-0.039-2.434-0.112
		c-0.622-0.077-1.114-0.19-1.479-0.343c-0.364-0.151-0.622-0.341-0.772-0.567c-0.152-0.229-0.229-0.494-0.229-0.797v-4.687
		c-2.244,2.427-4.526,4.247-6.847,5.46c-2.32,1.212-4.726,1.82-7.211,1.82c-2.791,0-5.135-0.455-7.029-1.365
		c-1.896-0.91-3.429-2.154-4.596-3.73c-1.168-1.577-2.002-3.404-2.502-5.482s-0.75-4.665-0.75-7.758V123.86
		c0-0.303,0.082-0.569,0.25-0.796c0.166-0.228,0.469-0.417,0.91-0.569c0.438-0.151,1.029-0.265,1.773-0.341
		c0.743-0.075,1.66-0.114,2.752-0.114c1.122,0,2.048,0.039,2.775,0.114c0.728,0.076,1.312,0.19,1.752,0.341
		c0.438,0.152,0.751,0.341,0.933,0.569c0.183,0.227,0.272,0.493,0.272,0.796v22.931c0,2.124,0.137,3.747,0.41,4.868
		c0.272,1.123,0.689,2.086,1.252,2.889c0.56,0.804,1.273,1.426,2.138,1.866c0.864,0.439,1.872,0.659,3.026,0.659
		c1.455,0,2.918-0.529,4.39-1.592c1.471-1.063,3.04-2.609,4.708-4.642v-26.98c0-0.303,0.084-0.569,0.252-0.796
		c0.165-0.228,0.469-0.417,0.909-0.569c0.439-0.151,1.023-0.265,1.751-0.341c0.729-0.075,1.654-0.114,2.775-0.114
		c1.122,0,2.048,0.039,2.775,0.114c0.729,0.076,1.304,0.19,1.729,0.341c0.426,0.152,0.729,0.341,0.91,0.569
		c0.183,0.227,0.273,0.493,0.273,0.796V164.444z"/>
	<path clip-path="url(#SVGID_2_)" fill="#8CC640" d="M74.626,8.167c4.04,0,8.164,8.822,8.164,8.822
		c-4.411,1.176-8.164,5.587-8.164,5.587C86.312,28.751,90.729,40.66,90.729,40.66c0.882-6.175-2.647-17.202-2.647-17.202
		c14.997-6.616,12.792-13.674,12.792-13.674L87.641,11.99c0,0-2.394-12.256-15.437-11.557C44.815,2.969,50.591,30.515,50.591,30.515
		C53.09,6.697,74.626,8.167,74.626,8.167"/>
	<path clip-path="url(#SVGID_2_)" fill="#8CC640" d="M181.592,22.135c-20.29,3.529-160.553,35.507-160.553,35.507
		S5.16,53.011,2.073,60.95c0,0,17.748-0.346,6.038,9.042l-8.023,8.381c0,0,7.057,33.963,16.761,44.769
		c6.175-10.145,6.396-26.465,13.894-32.86c3.087,13.673,13.012,40.358,18.084,45.209c-0.22,6.176-0.661,35.066,7.499,48.52
		c1.984-10.806-6.396-29.552,3.308-47.195c-5.955-13.453-22.495-59.546-19.849-74.543c-9.263,8.822-24.7,27.788-23.377,38.154
		c-3.529-5.073-10.586-14.777-2.426-25.142c4.411-6.616,5.513-7.057,7.057-13.453c8.822-1.323,158.127-31.317,158.127-31.317
		s13.232,9.925,16.32,6.837C198.574,34.265,201.882,18.605,181.592,22.135"/>
	<path clip-path="url(#SVGID_2_)" fill="#8CC640" d="M100.988,63.155c0,0,24.989,124.027-68.362,217.502l-0.013,0.129
		c41.391-39.838,116.866-130.284,76.201-229.981L100.988,63.155z"/>
</g>
</svg>
